<?xml version="1.0" encoding="UTF-8"?>
<svg fill="none" viewBox="0 0 157 24" xmlns="http://www.w3.org/2000/svg">
<g clip-path="url(#a)" fill="#fff">
<path d="m8.6946 0.26733h-6.4356c-0.72839 0-1.2908 0.19362-1.6781 0.58087-0.38724 0.38725-0.58087 0.94968-0.58087 1.6781v18.883c0 0.7284 0.19362 1.2908 0.58087 1.6781 0.38725 0.3872 0.94967 0.5808 1.6781 0.5808h6.4356c1.9731 0 3.7157-0.2581 5.2278-0.7837 1.5121-0.5163 2.8029-1.2816 3.854-2.2774 1.0511-0.9957 1.844-2.222 2.388-3.6696 0.544-1.4475 0.8114-3.1164 0.8114-4.9973 0-3.7618-1.0695-6.6477-3.1994-8.6669-2.1391-2.0008-5.1633-3.0058-9.0818-3.0058zm7.3392 15.287c-0.3319 1.0327-0.839 1.8809-1.5121 2.554s-1.5121 1.1802-2.5263 1.5305c-1.005 0.3412-2.1944 0.5164-3.5682 0.5164h-4.1859v-16.375h4.1859c2.7015 0 4.7207 0.67307 6.0761 2.0284 1.3461 1.3461 2.0284 3.393 2.0284 6.1406 0 1.3738-0.166 2.5725-0.4979 3.6051z"/>
<path d="m35.203 1.7887c-0.2858-0.64541-0.6362-1.0972-1.0419-1.3738s-0.8667-0.41491-1.3738-0.41491-1.005 0.1383-1.4107 0.41491c-0.4056 0.2766-0.756 0.73761-1.0418 1.3738l-8.7592 19.418c-0.2212 0.5071-0.295 0.9681-0.2305 1.3738 0.0646 0.4057 0.2582 0.7376 0.5809 0.9773 0.3227 0.2398 0.7468 0.3688 1.2816 0.3688 0.5717 0 1.0142-0.1475 1.3277-0.4333s0.6085-0.7561 0.8944-1.3922l1.6319-3.8541h11.414l1.6597 3.8541c0.2673 0.6177 0.5716 1.0787 0.9128 1.3738 0.3411 0.295 0.8205 0.4517 1.4475 0.4517 0.5071 0 0.922-0.1198 1.2263-0.3503 0.3135-0.2305 0.4979-0.5625 0.5624-0.9774 0.0646-0.4241-0.0184-0.8851-0.2674-1.3922l-8.8144-19.418zm-2.4894 3.0887h0.0645l4.232 9.9946h-8.5009l4.2044-9.9946z"/>
<path d="m61.046 11.59c0.9774-0.3688 1.7795-0.922 2.4065-1.6689 0.8206-0.97733 1.2263-2.1667 1.2263-3.5866 0-1.2632-0.3043-2.3419-0.9128-3.2547-0.6085-0.90357-1.4845-1.6043-2.637-2.093-1.1525-0.48867-2.5447-0.72839-4.1859-0.72839h-7.9662c-0.7284 0-1.2908 0.19362-1.6781 0.58087-0.3872 0.38725-0.5808 0.94968-0.5808 1.6781v18.883c0 0.7284 0.1936 1.2908 0.5808 1.6781 0.3873 0.3872 0.9497 0.5808 1.6781 0.5808h8.335c2.4986 0 4.4533-0.5716 5.8548-1.7057 1.4014-1.1433 2.1114-2.7476 2.1114-4.8313 0-1.5951-0.4518-2.8859-1.3646-3.8817-0.7192-0.793-1.6873-1.3369-2.8675-1.6504zm-10.244-8.1045h5.4122c1.4568 0 2.554 0.28582 3.2731 0.84825 0.7192 0.56243 1.0788 1.4015 1.0788 2.5079 0 1.1064-0.3596 1.9454-1.0788 2.5079-0.7191 0.56243-1.8071 0.84822-3.2731 0.84822h-5.4122v-6.7122zm9.2939 16.08c-0.71 0.5901-1.8164 0.8759-3.3193 0.8759h-5.9746v-7.035h5.9746c1.5029 0 2.6093 0.2859 3.3193 0.8667 0.7099 0.5717 1.0603 1.4568 1.0603 2.6554s-0.3504 2.0561-1.0603 2.637z"/>
<path d="m81.976 7.1731c-0.6638 0-1.1709 0.17518-1.5305 0.51632-0.3504 0.34115-0.5348 0.8667-0.5348 1.5766v7.3023c0 1.2632-0.3504 2.2774-1.0603 3.0334-0.71 0.7653-1.6135 1.1433-2.7199 1.1433-1.0143 0-1.7611-0.2766-2.2221-0.8298s-0.7007-1.4014-0.7007-2.554v-8.0952c0-0.70995-0.1844-1.2355-0.544-1.5766-0.3688-0.34114-0.8759-0.51632-1.5398-0.51632-0.6638 0-1.1709 0.17518-1.5305 0.51632-0.3504 0.34115-0.5348 0.8667-0.5348 1.5766v8.0307c0 1.4844 0.2121 2.7199 0.6454 3.7157 0.4334 0.9958 1.088 1.7426 1.9731 2.2405 0.8852 0.4979 2.0008 0.7468 3.3562 0.7468 1.3553 0 2.3972-0.3227 3.3376-0.9589 0.6731-0.461 1.2171-1.0603 1.6412-1.7979v0.5717c0 0.6823 0.1752 1.2078 0.5348 1.5766 0.3504 0.3688 0.8483 0.544 1.4937 0.544 1.3461 0 2.0284-0.71 2.0284-2.1206v-12.549c0-0.70995-0.1844-1.2355-0.544-1.5766-0.3688-0.34114-0.8759-0.51632-1.5398-0.51632h-0.0092z"/>
<path d="m101.49 8.1322c-1.06-0.68228-2.3142-1.0326-3.7526-1.0326-1.3461 0-2.5355 0.33193-3.5497 0.99577-0.7284 0.47023-1.2724 1.0511-1.6596 1.7426v-7.7449c0-0.68229-0.1844-1.2078-0.544-1.5582-0.3596-0.35036-0.8759-0.53477-1.5398-0.53477-0.6638 0-1.1709 0.17518-1.5305 0.53477-0.3504 0.35036-0.5348 0.87591-0.5348 1.5582v19.713c0 0.6823 0.1752 1.2078 0.5348 1.5767 0.3503 0.3688 0.8667 0.5439 1.5305 0.5439 0.6639 0 1.1433-0.1844 1.4937-0.5439 0.3503-0.3689 0.5347-0.8944 0.5347-1.5767v-0.6915c0.3781 0.7376 0.9313 1.3554 1.6781 1.8532 1.0327 0.6823 2.2313 1.0327 3.6051 1.0327s2.6641-0.3411 3.7341-1.0327c1.07-0.6822 1.909-1.6688 2.508-2.9412s0.894-2.7752 0.894-4.4994-0.295-3.2455-0.894-4.4994c-0.599-1.254-1.429-2.2221-2.49-2.9044l-0.018 0.00921zm-1.309 10.336c-0.3414 0.7837-0.8208 1.3738-1.4478 1.7795s-1.3369 0.5993-2.1575 0.5993c-1.2355 0-2.2313-0.4518-2.9873-1.3461-0.7561-0.8944-1.1249-2.2221-1.1249-3.9647 0-1.1709 0.1752-2.1483 0.5163-2.9412 0.3412-0.7837 0.8206-1.3738 1.4476-1.761 0.6178-0.3873 1.3369-0.5809 2.1575-0.5809 1.2355 0 2.2313 0.4333 2.9873 1.3092 0.7558 0.876 1.1248 2.1944 1.1248 3.9647 0 1.171-0.175 2.1483-0.516 2.9412z"/>
<path d="m121.4 8.1322c-1.06-0.68228-2.314-1.0326-3.752-1.0326-1.346 0-2.536 0.33193-3.55 0.99577-0.728 0.47023-1.272 1.0511-1.66 1.7426v-7.7449c0-0.68229-0.184-1.2078-0.544-1.5582-0.359-0.35036-0.875-0.53477-1.539-0.53477s-1.171 0.17518-1.531 0.53477c-0.35 0.35036-0.535 0.87591-0.535 1.5582v19.713c0 0.6823 0.176 1.2078 0.535 1.5767 0.351 0.3688 0.867 0.5439 1.531 0.5439s1.143-0.1844 1.493-0.5439c0.351-0.3689 0.535-0.8944 0.535-1.5767v-0.6915c0.378 0.7376 0.931 1.3554 1.678 1.8532 1.033 0.6823 2.231 1.0327 3.605 1.0327s2.665-0.3411 3.734-1.0327c1.07-0.6822 1.909-1.6688 2.508-2.9412 0.6-1.2724 0.895-2.7752 0.895-4.4994s-0.295-3.2455-0.895-4.4994c-0.599-1.254-1.429-2.2221-2.489-2.9044l-0.019 0.00921zm-1.309 10.336c-0.341 0.7837-0.82 1.3738-1.447 1.7795s-1.337 0.5993-2.158 0.5993c-1.235 0-2.231-0.4518-2.987-1.3461-0.756-0.8944-1.125-2.2221-1.125-3.9647 0-1.1709 0.175-2.1483 0.516-2.9412 0.341-0.7837 0.821-1.3738 1.448-1.761 0.618-0.3873 1.337-0.5809 2.157-0.5809 1.236 0 2.232 0.4333 2.988 1.3092 0.756 0.876 1.124 2.1944 1.124 3.9647 0 1.171-0.175 2.1483-0.516 2.9412z"/>
<path d="m135.81 20.515c-0.157 0.0184-0.314 0.0369-0.461 0.0461-0.157 0.0092-0.323 0.0184-0.498 0.0184-0.793 0-1.411-0.2397-1.844-0.7284-0.434-0.4886-0.646-1.2355-0.646-2.2589v-15.499c0-0.68229-0.184-1.2078-0.544-1.5582-0.359-0.35036-0.876-0.53477-1.539-0.53477-0.664 0-1.171 0.17518-1.531 0.53477-0.35 0.35036-0.535 0.87591-0.535 1.5582v15.702c0 2.0376 0.461 3.5774 1.392 4.6285 0.932 1.0511 2.315 1.5766 4.15 1.5766 0.239 0 0.488-0.0092 0.728-0.0369 0.24-0.0184 0.479-0.0461 0.701-0.0645 0.507-0.0646 0.876-0.2582 1.097-0.5625 0.221-0.3134 0.332-0.7376 0.332-1.2908 0-0.6454-0.056-1.0695-0.166-1.2816-0.111-0.212-0.323-0.295-0.627-0.2489h-9e-3z"/>
<path d="m151.91 19.537c-0.351-0.0369-0.766 0.083-1.227 0.3503-0.645 0.3504-1.318 0.5994-2.037 0.7469s-1.365 0.212-1.946 0.212c-1.659 0-2.913-0.4517-3.771-1.3461-0.673-0.7099-1.069-1.7149-1.208-3.0058h10.023c0.507 0 0.903-0.1014 1.18-0.3134 0.277-0.2121 0.415-0.5164 0.415-0.9128 0-1.2632-0.175-2.3973-0.516-3.4023-0.342-1.005-0.84-1.8624-1.494-2.5724-0.655-0.70995-1.438-1.2539-2.36-1.6227-0.923-0.37803-1.955-0.56243-3.108-0.56243-1.567 0-2.969 0.35959-4.195 1.0788s-2.194 1.7057-2.886 2.9689c-0.7 1.2631-1.042 2.7291-1.042 4.4164s0.36 3.2179 1.079 4.481c0.719 1.2632 1.743 2.2313 3.07 2.9228 1.328 0.6823 2.914 1.0326 4.749 1.0326 0.866 0 1.798-0.1198 2.803-0.3503s1.899-0.5901 2.674-1.0788c0.396-0.2397 0.682-0.5347 0.848-0.8667 0.166-0.3319 0.23-0.6546 0.184-0.9773s-0.175-0.5901-0.378-0.8114c-0.212-0.2213-0.488-0.3503-0.848-0.378l-9e-3 -0.0092zm-8.252-8.962c0.654-0.4333 1.447-0.6454 2.369-0.6454 0.839 0 1.54 0.1844 2.112 0.544 0.562 0.3688 0.995 0.8943 1.291 1.5766 0.248 0.5717 0.387 1.2632 0.433 2.0561h-8.142c0.083-0.6269 0.222-1.2078 0.443-1.7057 0.341-0.7837 0.839-1.3922 1.494-1.8256z"/>
</g>
<defs>
<clipPath id="a">
<rect width="156.11" height="24" fill="#fff"/>
</clipPath>
</defs>
</svg>
